<?xml version="1.0" encoding="iso-8859-1"?>
<!-- Generator: Adobe Illustrator 21.0.2, SVG Export Plug-In . SVG Version: 6.00 Build 0)  -->
<svg version="1.1" id="Layer_1" xmlns="http://www.w3.org/2000/svg" xmlns:xlink="http://www.w3.org/1999/xlink" x="0px" y="0px"
	 viewBox="0 0 100.75 100.75" style="enable-background:new 0 0 100.75 100.75;" xml:space="preserve">
<path d="M95.318,87.152L79.799,71.634c-0.001-0.001-0.002-0.003-0.003-0.005s-0.003-0.002-0.005-0.003l-4.464-4.464
	c-0.149-0.138-14.942-13.933-14.314-24.399c0.219-1.98,0.211-4.049-0.05-6.185C60.068,29.236,56.384,22,50.586,16.203
	C38.521,4.138,20.918,2.11,11.346,11.682c-6.722,6.721-7.924,17.679-3.193,28.147c-2.52,2.872-3.911,6.508-3.911,10.364
	c0,4.208,1.64,8.165,4.615,11.14s6.932,4.615,11.14,4.615s8.165-1.639,11.141-4.615c0.289-0.289,0.551-0.594,0.813-0.899
	c2.595,0.706,5.161,1.074,7.633,1.073c1.037,0,2.05-0.083,3.05-0.205C53.06,60.933,66.69,75.515,66.869,75.706l4.426,4.425l0,0l0,0
	l15.523,15.523c0.281,0.281,0.663,0.439,1.061,0.439c0.398,0,0.779-0.158,1.061-0.44l6.38-6.38
	C95.904,88.687,95.904,87.737,95.318,87.152z M19.442,37.464c-0.764,2.697-3.625,10.197-12.174,12.209
	c0.128-3.211,1.425-6.214,3.711-8.5C13.256,38.896,16.245,37.601,19.442,37.464z M7.486,52.69
	c11.043-2.326,14.31-12.312,14.997-15.011c2.46,0.483,4.722,1.682,6.534,3.494c1.849,1.849,3.008,4.131,3.482,6.522
	c-11.035,2.331-14.3,12.312-14.986,15.01c-2.46-0.483-4.722-1.682-6.534-3.494C9.17,57.402,7.971,55.145,7.486,52.69z M20.546,62.92
	c0.745-2.713,3.55-10.187,12.176-12.209c-0.125,3.091-1.35,6.146-3.705,8.5C26.738,61.49,23.746,62.785,20.546,62.92z
	 M33.775,57.811c3.308-5.988,2.437-13.685-2.637-18.759c-2.976-2.976-6.933-4.615-11.141-4.615c-3.492,0-6.801,1.144-9.53,3.228
	c-3.739-9.024-2.632-18.232,2.999-23.863c8.401-8.401,24.103-6.374,34.998,4.521c5.325,5.326,8.706,11.938,9.521,18.617
	c0.797,6.543-0.979,12.361-4.999,16.381c-2.756,2.756-6.389,4.439-10.468,4.982c-0.109,0.004-0.22-0.001-0.329,0.006
	c-0.127,0.008-0.247,0.036-0.363,0.073C39.271,58.64,36.555,58.455,33.775,57.811z M49.227,59.475
	c2.184-0.994,4.177-2.327,5.881-4.032c1.708-1.707,3.064-3.684,4.061-5.866c3.487,9.864,13.586,19.293,14.079,19.747l3.365,3.365
	l-4.26,4.26l-3.324-3.323C68.541,73.097,59.108,62.981,49.227,59.475z M87.877,92.471L74.474,79.07l4.26-4.26l13.401,13.402
	L87.877,92.471z"/>
</svg>
