<svg version="1.1" id="Layer_1" xmlns="http://www.w3.org/2000/svg" xmlns:xlink="http://www.w3.org/1999/xlink" x="0px" y="0px"
	 viewBox="0 0 100.353 100.353" style="enable-background:new 0 0 100.353 100.353;" xml:space="preserve">
<path style="fill:none;stroke:#231F20;stroke-width:3;stroke-linecap:round;stroke-linejoin:round;stroke-miterlimit:10;" d="
	M12.27,69.461"/>
<path style="fill:#231F20;" d="M15.375,99.997L15.375,99.997c-0.387,0-0.757-0.154-1.03-0.427L0.427,85.646
	c-0.569-0.569-0.569-1.491,0-2.06l33.634-33.633L1.485,17.388c-0.273-0.273-0.427-0.644-0.427-1.03s0.154-0.757,0.427-1.03
	L15.399,1.415c0.546-0.546,1.513-0.546,2.059,0l32.57,32.571L83.597,0.426c0.569-0.568,1.49-0.568,2.059,0l13.918,13.908
	c0.273,0.273,0.427,0.644,0.427,1.03c0,0.387-0.154,0.757-0.427,1.03L66,49.953l32.57,32.585c0.569,0.568,0.569,1.49,0,2.059
	L84.663,98.51c-0.546,0.546-1.513,0.547-2.059,0L50.028,65.94L16.406,99.568C16.132,99.843,15.761,99.997,15.375,99.997z
	 M3.516,84.617L15.375,96.48l33.622-33.628c0.569-0.569,1.49-0.569,2.059,0l32.576,32.57L95.48,83.568L62.91,50.982
	c-0.569-0.569-0.569-1.491,0-2.06l33.573-33.558L84.625,3.515L51.056,37.074c-0.569,0.568-1.49,0.568-2.059,0l-32.57-32.57
	L4.573,16.358l32.576,32.564c0.273,0.273,0.427,0.644,0.427,1.03c0,0.386-0.154,0.756-0.427,1.03L3.516,84.617z"/>
</svg>
